<?xml version="1.0" encoding="UTF-8"?>
<svg id="Capa_1" data-name="Capa 1" xmlns="http://www.w3.org/2000/svg" viewBox="0 0 1372.45 577.42">
  <defs>
    <style>
      .cls-1 {
        letter-spacing: 0em;
      }

      .cls-2 {
        letter-spacing: -.02em;
      }

      .cls-3 {
        letter-spacing: -.01em;
      }

      .cls-4 {
        letter-spacing: 0em;
      }

      .cls-5 {
        font-size: 21px;
      }

      .cls-5, .cls-6, .cls-7 {
        fill: #394f3f;
        font-family: Roboto-Medium, Roboto;
        font-weight: 500;
      }

      .cls-8 {
        letter-spacing: 0em;
      }

      .cls-9 {
        letter-spacing: 0em;
      }

      .cls-6 {
        font-size: 20px;
      }

      .cls-10 {
        letter-spacing: 0em;
      }

      .cls-11 {
        letter-spacing: -.01em;
      }

      .cls-12 {
        fill: #5b7554;
        stroke-width: 0px;
      }

      .cls-13 {
        letter-spacing: 0em;
      }

      .cls-14 {
        letter-spacing: 0em;
      }

      .cls-15 {
        fill: none;
        stroke: #5b7554;
        stroke-linecap: round;
        stroke-linejoin: round;
        stroke-width: 2px;
      }

      .cls-16 {
        letter-spacing: 0em;
      }

      .cls-17 {
        letter-spacing: 0em;
      }

      .cls-18 {
        letter-spacing: 0em;
      }

      .cls-19 {
        letter-spacing: -.01em;
      }

      .cls-20 {
        letter-spacing: 0em;
      }

      .cls-21 {
        letter-spacing: 0em;
      }

      .cls-7 {
        font-size: 17px;
      }
    </style>
  </defs>
  <text class="cls-6" transform="translate(611.06 39.67)"><tspan x="0" y="0">Junta Di</tspan><tspan class="cls-8" x="73.94" y="0">r</tspan><tspan x="80.82" y="0">ecti</tspan><tspan class="cls-16" x="113.73" y="0">v</tspan><tspan x="123.51" y="0">a</tspan></text>
  <text class="cls-5" transform="translate(310.09 555.66)"><tspan x="0" y="0">ASAMBLEA GENERAL DE </tspan><tspan class="cls-20" x="241.96" y="0">L</tspan><tspan x="253.5" y="0">A RED DE ORGANI</tspan><tspan class="cls-17" x="424.2" y="0">Z</tspan><tspan class="cls-21" x="437" y="0">A</tspan><tspan class="cls-4" x="450.77" y="0">CIONES DE </tspan><tspan class="cls-14" x="560.38" y="0">L</tspan><tspan x="571.92" y="0">A SOCIE</tspan><tspan class="cls-11" x="649.77" y="0">D</tspan><tspan class="cls-4" x="663.26" y="0">AD CIVIL</tspan></text>
  <text class="cls-6" transform="translate(449.75 145.4)"><tspan x="0" y="0">Aseso</tspan><tspan class="cls-8" x="55.91" y="0">r</tspan><tspan x="62.79" y="0">es Externos</tspan></text>
  <text class="cls-7" transform="translate(19.21 276.99)"><tspan x="0" y="0">Junta Di</tspan><tspan class="cls-8" x="62.85" y="0">r</tspan><tspan x="68.7" y="0">ecti</tspan><tspan class="cls-16" x="96.67" y="0">v</tspan><tspan x="104.98" y="0">a </tspan><tspan x="-2.68" y="20.71">Inter</tspan><tspan class="cls-8" x="32.38" y="20.71">r</tspan><tspan x="38.23" y="20.71">egional de </tspan><tspan x="28.61" y="41.42">Salamá</tspan></text>
  <text class="cls-7" transform="translate(17.44 446.18)"><tspan x="0" y="0">Asamblea Gene</tspan><tspan class="cls-2" x="119.63" y="0">r</tspan><tspan x="125.34" y="0">al </tspan><tspan x="29.5" y="20.71">de Salamá</tspan></text>
  <text class="cls-7" transform="translate(222.38 446.18)"><tspan x="0" y="0">Asamblea Gene</tspan><tspan class="cls-2" x="119.63" y="0">r</tspan><tspan x="125.34" y="0">al </tspan><tspan x="29.61" y="20.71">de Rabinal</tspan></text>
  <text class="cls-7" transform="translate(415.28 446.18)"><tspan x="0" y="0">Asamblea Gene</tspan><tspan class="cls-2" x="119.63" y="0">r</tspan><tspan x="125.34" y="0">al </tspan><tspan x="33.5" y="20.71">de Cobán</tspan></text>
  <text class="cls-7" transform="translate(817.31 446.18)"><tspan x="0" y="0">Asamblea Gene</tspan><tspan class="cls-2" x="119.63" y="0">r</tspan><tspan x="125.34" y="0">al </tspan><tspan x="32.16" y="20.71">de Chisec</tspan></text>
  <text class="cls-7" transform="translate(1029.84 446.18)"><tspan x="0" y="0">Asamblea Gene</tspan><tspan class="cls-2" x="119.63" y="0">r</tspan><tspan x="125.34" y="0">al </tspan><tspan x="27.57" y="20.71">de Lanquín</tspan></text>
  <text class="cls-7" transform="translate(1222.81 446.18)"><tspan x="0" y="0">Asamblea Gene</tspan><tspan class="cls-2" x="119.63" y="0">r</tspan><tspan x="125.34" y="0">al </tspan><tspan x="37.62" y="20.71">de I</tspan><tspan class="cls-18" x="65.34" y="20.71">x</tspan><tspan x="73.72" y="20.71">cán</tspan></text>
  <text class="cls-7" transform="translate(609.06 446.18)"><tspan x="0" y="0">Asamblea Gene</tspan><tspan class="cls-2" x="119.63" y="0">r</tspan><tspan x="125.34" y="0">al </tspan><tspan x="7.22" y="20.71">de San Cris</tspan><tspan class="cls-3" x="93.46" y="20.71">t</tspan><tspan x="98.92" y="20.71">óbal</tspan></text>
  <text class="cls-7" transform="translate(215.18 276.99)"><tspan x="0" y="0">Junta Di</tspan><tspan class="cls-8" x="62.85" y="0">r</tspan><tspan x="68.7" y="0">ecti</tspan><tspan class="cls-16" x="96.67" y="0">v</tspan><tspan x="104.98" y="0">a </tspan><tspan x="-2.68" y="20.71">Inter</tspan><tspan class="cls-8" x="32.38" y="20.71">r</tspan><tspan x="38.23" y="20.71">egional de </tspan><tspan x="28.72" y="41.42">Rabinal</tspan></text>
  <text class="cls-7" transform="translate(415.03 276.99)"><tspan x="0" y="0">Junta Di</tspan><tspan class="cls-8" x="62.85" y="0">r</tspan><tspan x="68.7" y="0">ecti</tspan><tspan class="cls-16" x="96.67" y="0">v</tspan><tspan x="104.98" y="0">a </tspan><tspan x="-2.68" y="20.71">Inter</tspan><tspan class="cls-8" x="32.38" y="20.71">r</tspan><tspan x="38.23" y="20.71">egional de </tspan><tspan x="32.61" y="41.42">Cobán</tspan></text>
  <text class="cls-7" transform="translate(620.87 276.99)"><tspan x="0" y="0">Junta Di</tspan><tspan class="cls-9" x="62.84" y="0">r</tspan><tspan class="cls-13" x="68.7" y="0">ecti</tspan><tspan class="cls-1" x="96.67" y="0">v</tspan><tspan x="104.98" y="0">a </tspan><tspan x="-2.68" y="20.71">Inter</tspan><tspan class="cls-9" x="32.38" y="20.71">r</tspan><tspan class="cls-13" x="38.23" y="20.71">egional de </tspan><tspan x="6.33" y="41.42">San Cris</tspan><tspan class="cls-3" x="69.66" y="41.42">t</tspan><tspan x="75.12" y="41.42">óbal</tspan></text>
  <text class="cls-7" transform="translate(828.48 276.99)"><tspan x="0" y="0">Junta Di</tspan><tspan class="cls-9" x="62.84" y="0">r</tspan><tspan class="cls-13" x="68.7" y="0">ecti</tspan><tspan class="cls-1" x="96.67" y="0">v</tspan><tspan x="104.98" y="0">a </tspan><tspan x="-2.68" y="20.71">Inter</tspan><tspan class="cls-10" x="32.38" y="20.71">r</tspan><tspan x="38.23" y="20.71">egional de </tspan><tspan x="31.27" y="41.42">Chisec</tspan></text>
  <text class="cls-7" transform="translate(1032.86 276.99)"><tspan x="0" y="0">Junta Di</tspan><tspan class="cls-9" x="62.84" y="0">r</tspan><tspan class="cls-13" x="68.7" y="0">ecti</tspan><tspan class="cls-1" x="96.67" y="0">v</tspan><tspan x="104.98" y="0">a </tspan><tspan x="-2.68" y="20.71">Inter</tspan><tspan class="cls-10" x="32.38" y="20.71">r</tspan><tspan x="38.23" y="20.71">egional de </tspan><tspan x="26.68" y="41.42">Lanquín</tspan></text>
  <text class="cls-7" transform="translate(1238.8 276.99)"><tspan x="0" y="0">Junta Di</tspan><tspan class="cls-9" x="62.85" y="0">r</tspan><tspan class="cls-13" x="68.7" y="0">ecti</tspan><tspan class="cls-1" x="96.67" y="0">v</tspan><tspan x="104.98" y="0">a </tspan><tspan x="-2.68" y="20.71">Inter</tspan><tspan class="cls-10" x="32.38" y="20.71">r</tspan><tspan x="38.23" y="20.71">egional de </tspan><tspan x="36.72" y="41.42">I</tspan><tspan class="cls-18" x="41.54" y="41.42">x</tspan><tspan x="49.92" y="41.42">cán</tspan></text>
  <text class="cls-6" transform="translate(726.37 148.05)"><tspan x="0" y="0">Miemb</tspan><tspan class="cls-19" x="61.96" y="0">r</tspan><tspan x="68.78" y="0">os Hono</tspan><tspan class="cls-2" x="143.41" y="0">r</tspan><tspan x="150.13" y="0">arios</tspan></text>
  <circle class="cls-12" cx="678.21" cy="88.66" r="4.78"/>
  <circle class="cls-12" cx="817.74" cy="106.92" r="4.78"/>
  <circle class="cls-12" cx="1301.29" cy="240.22" r="4.78"/>
  <circle class="cls-12" cx="1089.76" cy="240.22" r="4.78"/>
  <circle class="cls-12" cx="877.44" cy="240.22" r="4.78"/>
  <circle class="cls-12" cx="678.63" cy="240.22" r="4.78"/>
  <circle class="cls-12" cx="471.77" cy="240.22" r="4.78"/>
  <circle class="cls-12" cx="269.53" cy="240.22" r="4.78"/>
  <circle class="cls-12" cx="73.37" cy="240.22" r="4.78"/>
  <circle class="cls-12" cx="73.37" cy="409.44" r="4.78"/>
  <circle class="cls-12" cx="287.87" cy="409.44" r="4.78"/>
  <circle class="cls-12" cx="489.22" cy="409.44" r="4.78"/>
  <circle class="cls-12" cx="678.21" cy="409.44" r="4.78"/>
  <circle class="cls-12" cx="886.08" cy="409.44" r="4.78"/>
  <circle class="cls-12" cx="1099.26" cy="409.44" r="4.78"/>
  <circle class="cls-12" cx="1295.07" cy="409.44" r="4.78"/>
  <circle class="cls-12" cx="1090.35" cy="550.6" r="4.78"/>
  <circle class="cls-12" cx="272.26" cy="550.6" r="4.78"/>
  <circle class="cls-12" cx="525.7" cy="106.92" r="4.78"/>
  <g>
    <rect class="cls-15" x="542.89" y="1" width="270.63" height="63.46" rx="21.93" ry="21.93"/>
    <rect class="cls-15" x="407.88" y="106.92" width="251.07" height="63.46" rx="21.12" ry="21.12"/>
    <rect class="cls-15" x="698.2" y="106.92" width="251.07" height="63.46" rx="21.12" ry="21.12"/>
    <rect class="cls-15" x="1" y="240.22" width="150.56" height="97.05" rx="23.02" ry="23.02"/>
    <rect class="cls-15" x="196.98" y="240.22" width="150.56" height="97.05" rx="23.02" ry="23.02"/>
    <rect class="cls-15" x="396.49" y="240.22" width="150.56" height="97.05" rx="23.02" ry="23.02"/>
    <rect class="cls-15" x="602.3" y="240.22" width="150.56" height="97.05" rx="23.02" ry="23.02"/>
    <rect class="cls-15" x="810.21" y="240.22" width="150.56" height="97.05" rx="23.02" ry="23.02"/>
    <rect class="cls-15" x="1015.3" y="240.22" width="150.56" height="97.05" rx="23.02" ry="23.02"/>
    <rect class="cls-15" x="1220.89" y="240.22" width="150.56" height="97.05" rx="23.02" ry="23.02"/>
    <rect class="cls-15" x="11" y="409.47" width="150.68" height="85.23" rx="17.33" ry="17.33"/>
    <rect class="cls-15" x="217.86" y="409.47" width="150.68" height="85.23" rx="17.33" ry="17.33"/>
    <rect class="cls-15" x="409.28" y="409.47" width="150.68" height="85.23" rx="17.33" ry="17.33"/>
    <rect class="cls-15" x="603.76" y="409.47" width="150.68" height="85.23" rx="17.33" ry="17.33"/>
    <rect class="cls-15" x="811.15" y="409.47" width="150.68" height="85.23" rx="17.33" ry="17.33"/>
    <rect class="cls-15" x="1023.95" y="409.47" width="150.68" height="85.23" rx="17.33" ry="17.33"/>
    <rect class="cls-15" x="1216.26" y="409.47" width="150.68" height="85.23" rx="17.33" ry="17.33"/>
    <rect class="cls-15" x="272.26" y="523.6" width="817.5" height="52.82" rx="18.66" ry="18.66"/>
    <path class="cls-15" d="m272.26,550.01h-125.26c-13.29,0-24.06-10.77-24.06-24.06v-32.53"/>
    <path class="cls-15" d="m1266.14,494.95v31c0,13.29-10.77,24.06-24.06,24.06h-152.32"/>
    <path class="cls-15" d="m1295.07,337.27v11.24c0,13.29-11.51,24.06-25.71,24.06H99.08c-14.2,0-25.71-10.77-25.71-24.06v-11.24"/>
    <path class="cls-15" d="m1295.07,407.88v-10.99c0-13.29-11.51-24.06-25.71-24.06H99.08c-14.2,0-25.71,10.77-25.71,24.06v12.57"/>
    <path class="cls-15" d="m73.37,239.83v-11.59c0-13.29,11.57-24.06,25.84-24.06h1176.24c14.27,0,25.84,10.77,25.84,24.06v14.15"/>
    <path class="cls-15" d="m1090.58,240.22v-26.63c0-5.19-4.22-9.4-9.42-9.4h-3.19"/>
    <path class="cls-15" d="m877.44,240.22v-26.63c0-5.19-4.22-9.4-9.42-9.4h-3.19"/>
    <path class="cls-15" d="m470.88,240.22v-26.63c0-5.19,4.22-9.4,9.42-9.4h3.19"/>
    <path class="cls-15" d="m817.74,106.92v-9.57c0-5.19-4.22-9.4-9.42-9.4h-270.01s-3.19,0-3.19,0c-5.2,0-9.42,4.21-9.42,9.4v9.57"/>
    <path class="cls-15" d="m269.53,240.22v-26.63c0-5.19,4.22-9.4,9.42-9.4h3.19"/>
    <path class="cls-15" d="m1100.26,409.44v-27.05c0-5.28-4.22-9.55-9.42-9.55h-3.19"/>
    <path class="cls-15" d="m887.12,409.44v-27.05c0-5.28-4.22-9.55-9.42-9.55h-3.19"/>
    <path class="cls-15" d="m489.22,409.47v-27.3c0-5.32,4.22-9.64,9.42-9.64h3.19"/>
    <path class="cls-15" d="m287.87,409.47v-27.3c0-5.32,4.22-9.64,9.42-9.64h3.19"/>
    <line class="cls-15" x1="678.21" y1="64.46" x2="678.21" y2="240.22"/>
    <line class="cls-15" x1="678.21" y1="337.58" x2="678.21" y2="409.47"/>
  </g>
</svg>